# xmcd
#
# Track frame offsets:
#	150
#	17118
#	33126
#	49723
#	64500
#	78843
#	98253
#	113956
#	126743
#	141454
#
# Disc length: 2172 seconds
#
# Revision: 1
# Processed by: cddbd v1.5.1PL2 Copyright (c) Steve Scherf et al.
# Submitted via: audiograbber 1.82.02
#
DISCID=7e087a0a
DTITLE=Atle Hansen - Mast utan skip
DYEAR=2006
DGENRE=
TTITLE0=Mast utan skip
TTITLE1=Sunnhordland
TTITLE2=På kaien klokkå seks
TTITLE3=Ei kvartmil frå land
TTITLE4=Den dagen regnet kom
TTITLE5=Stupande stund
TTITLE6=Stjerner over Mississippi
TTITLE7=Som lauvet rører seg
TTITLE8=Svart, svart dag
TTITLE9=Lang veg tilbake
EXTD=
EXTT0=
EXTT1=
EXTT2=
EXTT3=
EXTT4=
EXTT5=
EXTT6=
EXTT7=
EXTT8=
EXTT9=
PLAYORDER=
